<svg xmlns="http://www.w3.org/2000/svg" viewBox="0 0 128 128" role="img" aria-labelledby="title desc">
  <title id="title">Deep Signal mark</title>
  <desc id="desc">A luminous abyss beacon with sonar arcs and a suspended signal core.</desc>
  <defs>
    <linearGradient id="frame" x1="14" y1="10" x2="114" y2="118" gradientUnits="userSpaceOnUse">
      <stop offset="0" stop-color="#c8f8ff"/>
      <stop offset="0.38" stop-color="#4bd7ff"/>
      <stop offset="0.78" stop-color="#2457ff"/>
      <stop offset="1" stop-color="#071426"/>
    </linearGradient>
    <radialGradient id="abyssGlow" cx="50%" cy="43%" r="54%">
      <stop offset="0" stop-color="#f8fff8"/>
      <stop offset="0.18" stop-color="#9bf6ff"/>
      <stop offset="0.52" stop-color="#1677ff" stop-opacity="0.82"/>
      <stop offset="1" stop-color="#03111d" stop-opacity="0"/>
    </radialGradient>
    <linearGradient id="coreGold" x1="43" y1="34" x2="84" y2="87" gradientUnits="userSpaceOnUse">
      <stop offset="0" stop-color="#ffe5a5"/>
      <stop offset="0.55" stop-color="#f6c177"/>
      <stop offset="1" stop-color="#7f4328"/>
    </linearGradient>
    <linearGradient id="beam" x1="64" y1="15" x2="64" y2="113" gradientUnits="userSpaceOnUse">
      <stop offset="0" stop-color="#f6c177"/>
      <stop offset="0.4" stop-color="#7dd3fc"/>
      <stop offset="1" stop-color="#2b64ff" stop-opacity="0.08"/>
    </linearGradient>
  </defs>
  <rect x="8" y="8" width="112" height="112" rx="12" fill="#04101d"/>
  <rect x="12" y="12" width="104" height="104" rx="10" fill="url(#frame)" opacity="0.36"/>
  <rect x="18" y="18" width="92" height="92" rx="8" fill="#071527" stroke="#8ee8ff" stroke-opacity="0.45"/>
  <circle cx="64" cy="59" r="47" fill="url(#abyssGlow)"/>
  <path d="M64 14v100" stroke="url(#beam)" stroke-width="3.5" stroke-linecap="round"/>
  <path d="M31 53c8-18 20-27 33-27s25 9 33 27" fill="none" stroke="#7dd3fc" stroke-width="4.5" stroke-linecap="round" opacity="0.78"/>
  <path d="M40 61c6-11 14-17 24-17s18 6 24 17" fill="none" stroke="#ecf8f3" stroke-width="3.2" stroke-linecap="round" opacity="0.74"/>
  <path d="M28 78c14 9 28 13 36 13s22-4 36-13" fill="none" stroke="#35b6ff" stroke-width="5" stroke-linecap="round" opacity="0.55"/>
  <path d="M64 31l19 30-19 30-19-30z" fill="#06101f" stroke="url(#coreGold)" stroke-width="4" stroke-linejoin="round"/>
  <circle cx="64" cy="61" r="12" fill="#c8f8ff" stroke="#f6c177" stroke-width="2.5"/>
  <circle cx="64" cy="61" r="5" fill="#07111f"/>
  <path d="M45 102h38" stroke="#7dd3fc" stroke-width="4" stroke-linecap="round"/>
  <circle cx="31" cy="90" r="3" fill="#f6c177" opacity="0.86"/>
  <circle cx="97" cy="90" r="3" fill="#f6c177" opacity="0.86"/>
</svg>
