<svg xmlns="http://www.w3.org/2000/svg" viewBox="0 0 128 128" role="img" aria-labelledby="title desc">
  <title id="title">Echo Diver emblem</title>
  <desc id="desc">A compact deep-sea diver helmet crest with a bright signal lens.</desc>
  <defs>
    <linearGradient id="rim" x1="17" y1="12" x2="112" y2="116" gradientUnits="userSpaceOnUse">
      <stop offset="0" stop-color="#ecf8f3"/>
      <stop offset="0.42" stop-color="#45d3ff"/>
      <stop offset="1" stop-color="#10224a"/>
    </linearGradient>
    <radialGradient id="visor" cx="50%" cy="43%" r="50%">
      <stop offset="0" stop-color="#fff8d7"/>
      <stop offset="0.26" stop-color="#80fbff"/>
      <stop offset="0.68" stop-color="#176fff"/>
      <stop offset="1" stop-color="#03101c"/>
    </radialGradient>
    <linearGradient id="brass" x1="29" y1="23" x2="99" y2="104" gradientUnits="userSpaceOnUse">
      <stop offset="0" stop-color="#ffe5a5"/>
      <stop offset="0.58" stop-color="#f6c177"/>
      <stop offset="1" stop-color="#8a4c2c"/>
    </linearGradient>
  </defs>
  <rect x="8" y="8" width="112" height="112" rx="12" fill="#06101d"/>
  <rect x="14" y="14" width="100" height="100" rx="9" fill="#0a1728" stroke="#7dd3fc" stroke-opacity="0.46"/>
  <path d="M31 79V57c0-20 13-35 33-35s33 15 33 35v22c0 17-13 28-33 28S31 96 31 79z" fill="#0d2434" stroke="url(#rim)" stroke-width="5.5" stroke-linejoin="round"/>
  <path d="M39 57c4-17 13-26 25-26s21 9 25 26" fill="none" stroke="url(#brass)" stroke-width="5" stroke-linecap="round" opacity="0.86"/>
  <circle cx="64" cy="64" r="25" fill="url(#visor)" stroke="#ecf8f3" stroke-opacity="0.82" stroke-width="3.5"/>
  <circle cx="64" cy="64" r="12" fill="#07111f" stroke="url(#brass)" stroke-width="3.5"/>
  <path d="M64 40v48M40 64h48" stroke="#ecf8f3" stroke-width="2.2" stroke-linecap="round" opacity="0.68"/>
  <path d="M29 87c12 9 24 14 35 14s23-5 35-14" fill="none" stroke="#45d3ff" stroke-width="4.5" stroke-linecap="round" opacity="0.58"/>
  <path d="M24 38l16 8M104 38l-16 8M25 99l15-9M103 99l-15-9" stroke="#f6c177" stroke-width="4" stroke-linecap="round" opacity="0.78"/>
  <circle cx="38" cy="38" r="4.5" fill="#7dd3fc"/>
  <circle cx="90" cy="38" r="4.5" fill="#7dd3fc"/>
</svg>
